<svg width="18" height="20" viewBox="0 0 18 20" fill="none" xmlns="http://www.w3.org/2000/svg">
<path d="M0.75 8.41617C0.749936 8.13736 0.808056 7.86189 0.920305 7.60898C1.03255 7.35607 1.19623 7.13181 1.39992 6.95183L7.81658 1.20279C8.14749 0.910414 8.56674 0.75 9 0.75C9.43326 0.75 9.85251 0.910414 10.1834 1.20279L16.6001 6.95183C16.8038 7.13181 16.9674 7.35607 17.0797 7.60898C17.1919 7.86189 17.2501 8.13736 17.25 8.41617V17.0412C17.25 17.5495 17.0568 18.037 16.713 18.3965C16.3692 18.7559 15.9029 18.9578 15.4167 18.9578H2.58333C2.0971 18.9578 1.63079 18.7559 1.28697 18.3965C0.943154 18.037 0.75 17.5495 0.75 17.0412V8.41617Z" stroke="#CAC8C8" stroke-width="1.5" stroke-linecap="round" stroke-linejoin="round"/>
</svg>
