<svg width="44" height="44" viewBox="0 0 44 44" fill="none" xmlns="http://www.w3.org/2000/svg">
<mask id="path-1-inside-1_6265_59726" fill="white">
<path d="M0 14C0 6.26801 6.26801 0 14 0H30C37.732 0 44 6.26801 44 14V30C44 37.732 37.732 44 30 44H14C6.26801 44 0 37.732 0 30V14Z"/>
</mask>
<path d="M0 14C0 6.26801 6.26801 0 14 0H30C37.732 0 44 6.26801 44 14V30C44 37.732 37.732 44 30 44H14C6.26801 44 0 37.732 0 30V14Z" fill="white" fill-opacity="0.1"/>
<path d="M14 0V1H30V0V-1H14V0ZM44 14H43V30H44H45V14H44ZM30 44V43H14V44V45H30V44ZM0 30H1V14H0H-1V30H0ZM14 44V43C6.8203 43 1 37.1797 1 30H0H-1C-1 38.2843 5.71573 45 14 45V44ZM44 30H43C43 37.1797 37.1797 43 30 43V44V45C38.2843 45 45 38.2843 45 30H44ZM30 0V1C37.1797 1 43 6.8203 43 14H44H45C45 5.71573 38.2843 -1 30 -1V0ZM14 0V-1C5.71573 -1 -1 5.71573 -1 14H0H1C1 6.8203 6.8203 1 14 1V0Z" fill="white" fill-opacity="0.12" mask="url(#path-1-inside-1_6265_59726)"/>
<path d="M20.5586 29.5C20.7049 29.7533 20.9153 29.9637 21.1686 30.11C21.422 30.2563 21.7094 30.3333 22.0019 30.3333C22.2945 30.3333 22.5819 30.2563 22.8352 30.11C23.0886 29.9637 23.299 29.7533 23.4453 29.5" stroke="white" stroke-width="1.5" stroke-linecap="round" stroke-linejoin="round"/>
<path d="M14.7177 24.772C14.6089 24.8913 14.537 25.0397 14.5109 25.1991C14.4849 25.3585 14.5057 25.522 14.5708 25.6698C14.636 25.8176 14.7427 25.9433 14.8779 26.0316C15.0132 26.1198 15.1712 26.1669 15.3327 26.167H28.6661C28.8276 26.167 28.9856 26.1202 29.1209 26.0321C29.2563 25.944 29.3631 25.8184 29.4285 25.6708C29.4938 25.5231 29.5148 25.3596 29.4889 25.2001C29.4631 25.0407 29.3914 24.8923 29.2827 24.7728C28.1744 23.6303 26.9994 22.4162 26.9994 18.667C26.9994 17.3409 26.4726 16.0691 25.5349 15.1315C24.5972 14.1938 23.3255 13.667 21.9994 13.667C20.6733 13.667 19.4015 14.1938 18.4639 15.1315C17.5262 16.0691 16.9994 17.3409 16.9994 18.667C16.9994 22.4162 15.8236 23.6303 14.7177 24.772Z" stroke="white" stroke-width="1.5" stroke-linecap="round" stroke-linejoin="round"/>
<mask id="path-5-inside-2_6265_59726" fill="white">
<path d="M27 13C27 10.7909 28.7909 9 31 9C33.2091 9 35 10.7909 35 13C35 15.2091 33.2091 17 31 17C28.7909 17 27 15.2091 27 13Z"/>
</mask>
<path d="M27 13C27 10.7909 28.7909 9 31 9C33.2091 9 35 10.7909 35 13C35 15.2091 33.2091 17 31 17C28.7909 17 27 15.2091 27 13Z" fill="#FCA05A"/>
<path d="M27 13M35 13M35 13M27 13M31 9M35 13M31 17M27 13M31 17V16C29.3431 16 28 14.6569 28 13H27H26C26 15.7614 28.2386 18 31 18V17ZM35 13H34C34 14.6569 32.6569 16 31 16V17V18C33.7614 18 36 15.7614 36 13H35ZM31 9V10C32.6569 10 34 11.3431 34 13H35H36C36 10.2386 33.7614 8 31 8V9ZM31 9V8C28.2386 8 26 10.2386 26 13H27H28C28 11.3431 29.3431 10 31 10V9Z" fill="#46000B" mask="url(#path-5-inside-2_6265_59726)"/>
</svg>
